<?xml version="1.0" encoding="utf-8"?>
<!-- Generator: Adobe Illustrator 24.2.1, SVG Export Plug-In . SVG Version: 6.00 Build 0)  -->
<svg version="1.1" id="Layer_1" xmlns="http://www.w3.org/2000/svg" xmlns:xlink="http://www.w3.org/1999/xlink" x="0px" y="0px"
	 viewBox="0 0 500 500" style="enable-background:new 0 0 500 500;" xml:space="preserve">
<style type="text/css">
	.st0{fill:none;}
	.st1{fill-rule:evenodd;clip-rule:evenodd;fill:#231F20;}
	.st2{fill-rule:evenodd;clip-rule:evenodd;fill:#1FAC39;}
	.st3{fill-rule:evenodd;clip-rule:evenodd;fill:#67DA7C;}
	.st4{fill-rule:evenodd;clip-rule:evenodd;fill:#BE1F24;}
	.st5{fill:#231F20;}
	.st6{fill:#BE1F24;}
	.st7{fill:#FFFFFF;}
	.st8{fill:#1FAC39;}
</style>
<g id="Layer_2_1_">
	<rect class="st0" width="500" height="500"/>
	<g id="Layer_1-2">
		<path class="st1" d="M378.7,413.8c0,20.2,10.1,30.3,30.3,30.3h30.3c20.2,0,30.3-10.1,30.3-30.3v-30.3c0-20.2-10.1-30.3-30.3-30.3
			H409c-20.2,0-30.3,10.1-30.3,30.3V413.8z M409,474.5c-40.4,0-60.6-20.2-60.6-60.6V262.3h30.3v65.8c8.4-3.5,18.5-5.2,30.3-5.2h30.3
			c40.4,0,60.6,20.2,60.6,60.6v30.3c0,40.4-20.2,60.6-60.6,60.6L409,474.5z"/>
		<path class="st2" d="M221.7,42.9L376,239.7H0L153.4,44.2C172.4,19.8,203.2,19.3,221.7,42.9"/>
		<path class="st3" d="M397.7,109.2L500,239.7H228l101.3-129.2C348.4,86.2,379.1,85.6,397.7,109.2"/>
		<polygon class="st4" points="376,239.7 228,239.7 302,145.3 		"/>
		<path class="st1" d="M30.3,383.5h91c0-20.2-10.1-30.3-30.3-30.3H60.6C40.4,353.2,30.3,363.3,30.3,383.5 M60.6,444.2h75.8v30.3
			H60.6C20.2,474.5,0,454.3,0,413.8v-30.3c0-40.4,20.2-60.6,60.6-60.6H91c40.4,0,60.6,20.2,60.6,60.6v30.3H30.3
			C30.3,434.1,40.4,444.2,60.6,444.2z"/>
		<path class="st1" d="M237.2,444.2h15.2v30.3h-15.2c-40.4,0-60.6-20.2-60.6-60.6V262.3h30.3v60.6h45.5v30.3h-45.5v60.6
			C206.9,434.1,217,444.2,237.2,444.2"/>
		<rect x="286.9" y="322.9" class="st5" width="30.3" height="151.6"/>
		<rect x="286.9" y="203.3" class="st6" width="30.3" height="89.3"/>
		<rect x="114.1" y="197.2" class="st7" width="46.5" height="46.5"/>
		<rect x="115.2" y="103.8" class="st7" width="46.5" height="46.5"/>
		<rect x="21.4" y="103.1" class="st8" width="46.5" height="46.5"/>
		<rect x="67.6" y="150" class="st7" width="46.5" height="46.5"/>
	</g>
</g>
</svg>
